<?xml version="1.0" encoding="UTF-8" standalone="no"?>
<!-- Created with Inkscape (http://www.inkscape.org/) -->

<svg
   version="1.1"
   id="svg1"
   width="192"
   height="192"
   viewBox="0 0 192 192"
   sodipodi:docname="logo.svg"
   inkscape:version="1.4.2 (ebf0e940d0, 2025-05-08)"
   inkscape:export-filename="logo.png"
   inkscape:export-xdpi="96"
   inkscape:export-ydpi="96"
   xmlns:inkscape="http://www.inkscape.org/namespaces/inkscape"
   xmlns:sodipodi="http://sodipodi.sourceforge.net/DTD/sodipodi-0.dtd"
   xmlns="http://www.w3.org/2000/svg"
   xmlns:svg="http://www.w3.org/2000/svg">
  <defs
     id="defs1" />
  <sodipodi:namedview
     id="namedview1"
     pagecolor="#ffffff"
     bordercolor="#000000"
     borderopacity="0.25"
     inkscape:showpageshadow="false"
     inkscape:pageopacity="0.0"
     inkscape:pagecheckerboard="0"
     inkscape:deskcolor="#d1d1d1"
     showgrid="false"
     inkscape:zoom="2"
     inkscape:cx="44.75"
     inkscape:cy="250.25"
     inkscape:window-width="3838"
     inkscape:window-height="2105"
     inkscape:window-x="0"
     inkscape:window-y="0"
     inkscape:window-maximized="1"
     inkscape:current-layer="layer3"
     inkscape:export-bgcolor="#ffffff00"
     showborder="false"
     borderlayer="false" />
  <g
     inkscape:groupmode="layer"
     id="layer1"
     inkscape:label="bg"
     transform="translate(-416,-416)" />
  <g
     inkscape:groupmode="layer"
     id="layer3"
     inkscape:label="foreground"
     transform="translate(-416,-416)">
    <g
       id="g1994"
       transform="matrix(0.1875,0,0,0.1875,416,416)">
      <rect
         style="fill:#d95a2a;fill-opacity:1"
         id="rect1967"
         width="1024"
         height="1024"
         x="0"
         y="0" />
      <g
         id="g1993"
         transform="translate(27.476785)">
        <path
           style="fill:#ffffff"
           d="m 286.5,721.96727 c -2.75,-0.87285 -7.025,-3.08881 -9.5,-4.92435 -2.475,-1.83554 -43.03601,-41.95251 -90.13557,-89.14883 -82.47582,-82.64524 -85.7174,-86.03287 -87.853173,-91.81149 -2.99196,-8.09514 -2.348695,-17.47786 1.687243,-24.61023 3.32409,-5.87439 116.84803,-121.15229 118.85102,-120.68729 0.70487,0.16364 11.01855,9.89828 22.91928,21.63253 l 21.6377,21.33501 -1.16332,5.60366 c -2.71176,13.0625 3.08454,26.43074 14.6747,33.84488 L 283,476.64406 v 53.84795 53.84795 l -2.84306,1.17763 c -4.25128,1.76094 -11.75834,9.89933 -14.35756,15.56501 -3.29911,7.19128 -3.18838,19.92148 0.23485,27 11.49127,23.76145 44.96534,24.58762 56.79343,1.40171 7.87668,-15.4402 3.63752,-32.82796 -10.35262,-42.46334 L 307,583.25017 v -52.83379 c 0,-41.84686 0.26223,-52.83378 1.26103,-52.83378 0.69357,0 8.90607,7.65509 18.25,17.01132 L 343.5,511.60524 v 11.73868 c 0,12.83693 1.09105,16.28651 7.43729,23.51447 7.41712,8.44764 21.74278,11.98168 33.18367,8.18617 7.82454,-2.59578 16.82805,-11.83617 19.31084,-19.81892 6.38604,-20.53258 -8.05415,-41.60296 -28.53258,-41.63327 -3.63042,-0.005 -8.06553,0.50085 -9.85578,1.12493 l -3.25501,1.13471 -19.21131,-19.19237 -19.21132,-19.19236 0.0671,-10.69234 c 0.074,-11.78945 -1.114,-15.34273 -7.59902,-22.72876 -6.54873,-7.45859 -20.30201,-11.36194 -30.30227,-8.60015 l -3.96839,1.09596 -21.78161,-21.69964 C 247.80172,382.90755 238,372.43071 238,371.5605 c 0,-0.87021 9.3375,-10.82929 20.75,-22.13129 23.49137,-23.2639 25.4165,-24.50842 36.53169,-23.6162 3.63518,0.2918 8.12714,1.44767 10.67264,2.74629 3.04328,1.55257 25.33799,23.36284 72.47059,70.89589 108.25706,109.17685 108.82349,109.7685 110.95695,115.89904 2.5026,7.1913 1.94096,17.9026 -1.29662,24.72837 -1.90544,4.01722 -19.29643,21.94564 -88.47842,91.2126 -74.93989,75.03194 -86.82126,86.53686 -91.61573,88.71293 -7.25149,3.29124 -15.05342,4.00247 -21.4911,1.95914 z"
           id="path1977" />
        <g
           id="g1992">
          <path
             style="fill:#ffffff"
             d="M 526.74592,765.80189 C 517.4408,763.60884 508.24625,757.0977 503.17477,749.10993 498.03584,741.01591 497,735.49619 497,716.20606 v -17.3185 l 7.75,-0.006 c 10.12698,-0.007 15.00416,-1.454 18.92815,-5.61464 6.02835,-6.39191 5.01694,-17.60759 -2.04189,-22.64267 -2.62001,-1.86887 -4.86463,-2.31941 -13.63626,-2.73711 l -10.5,-0.5 v -36 -36 l 10.5,-0.51249 c 11.65726,-0.56897 14.84073,-1.89446 17.73923,-7.38601 2.36427,-4.47938 2.19036,-12.87945 -0.33673,-16.26422 -4.34954,-5.82573 -6.68764,-6.76029 -17.95656,-7.17744 l -10.47096,-0.3876 0.26251,-35.63612 0.26251,-35.63612 10.55206,-0.5 c 11.36004,-0.53828 14.38129,-1.67935 17.6483,-6.66544 2.24173,-3.42132 2.22452,-11.7942 -0.0331,-16.07514 -2.88958,-5.47941 -5.8564,-6.70169 -17.62073,-7.25942 l -10.54658,-0.5 v -36 -36 l 10.54658,-0.5 c 11.53717,-0.54696 14.77148,-1.81369 17.34688,-6.79397 2.7013,-5.22374 2.94316,-9.65663 0.79216,-14.5193 -3.00831,-6.80079 -5.71704,-8.09838 -18.13356,-8.68673 l -10.55206,-0.5 v -23.5 -23.5 l 3.15125,-6.65125 c 5.19459,-10.96408 13.98528,-18.21791 25.80885,-21.29675 5.25778,-1.36912 23.34564,-1.54995 153.5,-1.53464 160.81673,0.0189 155.37345,-0.16689 166.32029,5.67766 8.16739,4.36059 16.74953,13.52841 21.2994,22.75295 l 3.92021,7.94797 0.25952,203.86538 c 0.28822,226.40927 0.82583,208.21279 -6.51915,220.65057 -4.28479,7.25574 -11.61883,14.36618 -18.88085,18.3052 -11.21619,6.08383 -2.68574,5.79238 -166.31962,5.68246 -82.80607,-0.0556 -151.2152,-0.49529 -153.29398,-0.98522 z"
             id="path1967" />
          <g
             id="g1991"
             style="fill:#d95a2a;fill-opacity:1">
            <path
               style="fill:#d95a2a;fill-opacity:1"
               d="m 727.5255,411.8718 c 9.04796,-5.59195 8.14715,-19.26423 -1.59658,-24.23268 -3.16236,-1.61253 -8.58678,-1.74857 -69.77779,-1.75 -59.90849,-10e-4 -66.69047,0.16054 -69.86806,1.66841 -5.38032,2.55313 -7.46983,6.64191 -7.01392,13.72495 0.34037,5.28802 0.75635,6.24035 4.04046,9.25 l 3.66102,3.35508 h 68.64665 c 67.08023,0 68.72108,-0.046 71.90822,-2.01576 z"
               id="path1976" />
            <path
               style="fill:#d95a2a;fill-opacity:1"
               d="m 808.69567,491.93156 c 4.67579,-2.85101 6.68895,-6.51255 6.68895,-12.16591 0,-5.74008 -2.31488,-9.50516 -7.4557,-12.12653 -3.20188,-1.63268 -10.57988,-1.74831 -111.42892,-1.74627 -105.28683,0.002 -108.08028,0.0511 -111.19567,1.95071 -4.57948,2.79229 -6.52426,6.30319 -6.60916,11.93151 -0.0854,5.65922 1.87896,9.27231 6.60916,12.15649 3.11569,1.89976 5.91121,1.94852 111.69567,1.94852 105.78446,0 108.57998,-0.0488 111.69567,-1.94852 z"
               id="path1974" />
            <path
               style="fill:#d95a2a;fill-opacity:1"
               d="m 583.98983,493.63756 c -5.65074,-3.84586 -7.4565,-7.15168 -7.4565,-13.6507 0,-4.80281 0.47831,-6.42578 2.78503,-9.45004 5.47851,-7.1827 -3.37491,-6.70396 118.584,-6.41225 109.28569,0.2614 109.96815,0.27547 112.71274,2.32478 5.20639,3.88744 6.81296,7.02744 6.85029,13.38872 0.0388,6.61205 -1.7444,9.91274 -7.45522,13.79949 l -3.30594,2.25 H 697 587.29577 Z"
               id="path1973" />
            <path
               style="fill:#d95a2a;fill-opacity:1"
               d="m 587,575.06728 c -6.77081,-3.06815 -10,-8.21321 -10,-15.93296 0,-5.47961 2.44656,-10.04136 7.32333,-13.65481 2.8112,-2.08296 3.17844,-2.09195 85.5,-2.09195 H 752.5 l 3.67905,2.28771 c 7.95986,4.94961 10.02072,16.3284 4.31268,23.81201 -5.10816,6.69716 -0.95885,6.4076 -90.70961,6.33 -44.70517,-0.0387 -81.95712,-0.37616 -82.78212,-0.75 z"
               id="path1971" />
            <path
               style="fill:#d95a2a;fill-opacity:1"
               d="m 585.14924,654.20208 c -4.87062,-2.41575 -8.23416,-8.02397 -8.36372,-13.94527 -0.19971,-9.128 5.50355,-15.77881 14.45416,-16.85558 2.89317,-0.34806 34.09363,-0.49352 69.33433,-0.32325 l 64.07401,0.30958 4.0197,2.66076 c 9.77588,6.47096 9.75001,19.95758 -0.0523,27.27745 -2.71834,2.02992 -3.8227,2.06547 -71.43821,2.30001 -62.30974,0.21614 -68.98786,0.0841 -72.02795,-1.4237 z"
               id="path1969" />
          </g>
        </g>
      </g>
    </g>
  </g>
</svg>
